# xmcd
#
# Track frame offsets:
#   150
#   18898
#   38234
#   53608
#   68896
#   86242
#   104217
#   117289
#   134389
#   154530
#   170931
#   181287
#   192325
#   208020
#   224458
#   240177
#   253230
#   265855
#   284930
#   296975
#
# Disc length: 4173 seconds
#
# Revision: 0
# Processed by: cddbd v1.5.1PL0 Copyright (c) Steve Scherf et al.
# Submitted via: Media_Universe 3.0
#
DISCID=40104b14
DTITLE=John Michael Montgomery - Letters From Home and Home To You
DYEAR=1900
DGENRE=Country
TTITLE0=Good Ground
TTITLE1=Letters From Home
TTITLE2=Thats What Im Talkin About
TTITLE3=Look At Me Now
TTITLE4=It Rocked
TTITLE5=That Changes Everything
TTITLE6=Break The Chain
TTITLE7=Little Devil
TTITLE8=Goes Good With Beer
TTITLE9=Cool
TTITLE10=Love Made Me Do It
TTITLE11=Hello L-O-V-E
TTITLE12=Home To You
TTITLE13=Your Love Lingers On
TTITLE14=You Are
TTITLE15=Sinkin In
TTITLE16=Holding An Amazing Love
TTITLE17=When Your Arms Were Around
TTITLE18=Love Is Our Business
TTITLE19=Nothing Catches Jesus By Surprise
EXTD=
EXTT0=
EXTT1=
EXTT2=
EXTT3=
EXTT4=
EXTT5=
EXTT6=
EXTT7=
EXTT8=
EXTT9=
EXTT10=
EXTT11=
EXTT12=
EXTT13=
EXTT14=
EXTT15=
EXTT16=
EXTT17=
EXTT18=
EXTT19=
PLAYORDER=
